# xmcd CD database file
#
# Track frame offsets:
#	150
#	34266
#	67447
#	93381
#	124722
#	152454
#
# Disc length: 2391 seconds
#
# Revision: 1
# Processed by: cddbd v1.5.1PL0 Copyright (c) Steve Scherf et al.
# Submitted via: CDex 1.51
#
DISCID=4d095506
DTITLE=Gustavo Bergalli Quintet - Night Cats
DYEAR=1989
DGENRE=Jazz
TTITLE0=Night Cats
TTITLE1=Nattens Drottnings (Queen of the Night)
TTITLE2=New Intent
TTITLE3=32nd
TTITLE4=Going Back
TTITLE5=Corrientes
EXTD=YEAR: 1989
EXTT0=
EXTT1=
EXTT2=
EXTT3=
EXTT4=
EXTT5=
PLAYORDER=
